<svg width="960" height="360" viewBox="0 0 960 360" xmlns="http://www.w3.org/2000/svg" role="img" aria-labelledby="title desc">
  <title id="title">Hakimi pixel cat-ear exploration spacecraft</title>
  <desc id="desc">A playful pixel spacecraft with cat-ear fins, stars, and Hakimi physics research agent text.</desc>
  <rect width="960" height="360" rx="24" fill="#0B1220"/>
  <g fill="#F6F2E3" opacity="0.82">
    <rect x="54" y="52" width="4" height="4"/>
    <rect x="126" y="86" width="3" height="3"/>
    <rect x="196" y="34" width="5" height="5"/>
    <rect x="292" y="78" width="3" height="3"/>
    <rect x="808" y="64" width="4" height="4"/>
    <rect x="870" y="112" width="3" height="3"/>
    <rect x="754" y="278" width="5" height="5"/>
    <rect x="678" y="42" width="3" height="3"/>
  </g>
  <g transform="translate(125 74) rotate(-18 130 95) scale(8)" shape-rendering="crispEdges">
    <rect x="12" y="0" width="2" height="1" fill="#F6F2E3"/>
    <rect x="11" y="1" width="4" height="1" fill="#F6F2E3"/>
    <rect x="10" y="2" width="2" height="1" fill="#F6F2E3"/>
    <rect x="13" y="2" width="3" height="1" fill="#DDE7F3"/>
    <rect x="20" y="1" width="1" height="1" fill="#F6F2E3"/>
    <rect x="19" y="2" width="3" height="1" fill="#F6F2E3"/>
    <rect x="18" y="3" width="5" height="1" fill="#DDE7F3"/>
    <rect x="8" y="3" width="8" height="1" fill="#DDE7F3"/>
    <rect x="6" y="4" width="4" height="1" fill="#F6F2E3"/>
    <rect x="10" y="4" width="12" height="1" fill="#28D7FF"/>
    <rect x="22" y="4" width="2" height="1" fill="#DDE7F3"/>
    <rect x="4" y="5" width="4" height="1" fill="#DDE7F3"/>
    <rect x="8" y="5" width="15" height="1" fill="#28D7FF"/>
    <rect x="23" y="5" width="2" height="1" fill="#F6F2E3"/>
    <rect x="2" y="6" width="5" height="1" fill="#9AA7B6"/>
    <rect x="7" y="6" width="12" height="1" fill="#28D7FF"/>
    <rect x="19" y="6" width="3" height="1" fill="#FFD45C"/>
    <rect x="22" y="6" width="2" height="1" fill="#DDE7F3"/>
    <rect x="1" y="7" width="5" height="1" fill="#9AA7B6"/>
    <rect x="6" y="7" width="6" height="1" fill="#28D7FF"/>
    <rect x="12" y="7" width="5" height="1" fill="#FFD45C"/>
    <rect x="17" y="7" width="5" height="1" fill="#28D7FF"/>
    <rect x="22" y="7" width="1" height="1" fill="#DDE7F3"/>
    <rect x="2" y="8" width="4" height="1" fill="#DDE7F3"/>
    <rect x="6" y="8" width="4" height="1" fill="#FF9D2E"/>
    <rect x="10" y="8" width="8" height="1" fill="#1F8DFF"/>
    <rect x="18" y="8" width="3" height="1" fill="#28D7FF"/>
    <rect x="4" y="9" width="4" height="1" fill="#F6F2E3"/>
    <rect x="8" y="9" width="10" height="1" fill="#1F8DFF"/>
    <rect x="18" y="9" width="2" height="1" fill="#DDE7F3"/>
    <rect x="7" y="10" width="10" height="1" fill="#1F8DFF"/>
    <rect x="17" y="10" width="2" height="1" fill="#F6F2E3"/>
    <rect x="10" y="11" width="6" height="1" fill="#1F8DFF"/>
    <rect x="12" y="12" width="2" height="2" fill="#FF9D2E"/>
  </g>
  <g font-family="Inter, ui-sans-serif, system-ui, -apple-system, Segoe UI, sans-serif">
    <text x="438" y="118" fill="#F6F2E3" font-size="64" font-weight="800" letter-spacing="0">Hakimi</text>
    <text x="442" y="160" fill="#28D7FF" font-size="24" font-weight="700">truth-seeking physics research agent</text>
    <text x="442" y="202" fill="#DDE7F3" font-size="21">Physics agent for exploring the truth of the world.</text>
    <rect x="442" y="230" width="342" height="2" fill="#FFD45C"/>
    <text x="442" y="270" fill="#9AA7B6" font-size="18">.aitp memory  |  WorkFrames  |  evidence  |  graph checks</text>
  </g>
</svg>
